PathFileType	4	(X/Y/Z)	s01c0302.trc
DataRate	CameraRate	NumFrames	NumMarkers	Units	OrigDataRate	OrigDataStartFrame	OrigNumFrames
200	200	6	48	mm	200	500	2000
Frame#	Time	racr			lacr			c7			jug			rlel			rdr			llel			ldr			s2			lic			ric			lasi			rasi			rpsi			lpsi			rgt			lgt			rth1			rth2			rth3			rth4			rlfc			rsh1			rsh2			rsh3			rsh4			rlmal			rmmal			rcal			rtoe			rmt5			lth1			lth2			lth4			lth3			llfc			lsh1			lsh2			lsh3			lsh4			llmal			lmmal			lcal			ltoe			lmt5			SBIKE			LBIKE			RBIKE			
		X1	Y1	Z1	X2	Y2	Z2	X3	Y3	Z3	X4	Y4	Z4	X5	Y5	Z5	X6	Y6	Z6	X7	Y7	Z7	X8	Y8	Z8	X9	Y9	Z9	X10	Y10	Z10	X11	Y11	Z11	X12	Y12	Z12	X13	Y13	Z13	X14	Y14	Z14	X15	Y15	Z15	X16	Y16	Z16	X17	Y17	Z17	X18	Y18	Z18	X19	Y19	Z19	X20	Y20	Z20	X21	Y21	Z21	X22	Y22	Z22	X23	Y23	Z23	X24	Y24	Z24	X25	Y25	Z25	X26	Y26	Z26	X27	Y27	Z27	X28	Y28	Z28	X29	Y29	Z29	X30	Y30	Z30	X31	Y31	Z31	X32	Y32	Z32	X33	Y33	Z33	X34	Y34	Z34	X35	Y35	Z35	X36	Y36	Z36	X37	Y37	Z37	X38	Y38	Z38	X39	Y39	Z39	X40	Y40	Z40	X41	Y41	Z41	X42	Y42	Z42	X43	Y43	Z43	X44	Y44	Z44	X45	Y45	Z45	X46	Y46	Z46	X47	Y47	Z47	X48	Y48	Z48	
500	2.5000	652.483078	1368.148966	-131.423764	643.798947	1341.662209	-464.975890	610.697687	1446.042393	-290.841276	611.694079	1281.016387	-291.146439	634.011603	1089.759691	-28.859918	742.007680	853.267468	-82.975762	579.766569	1068.089515	-569.919001	720.719674	878.569648	-462.986288	86.518652	1214.700008	-232.893339	226.814912	1247.322191	-429.668096	268.746655	1191.683078	-110.080382	234.236016	1188.703434	-408.379376	283.797446	1144.283194	-141.875591	125.874694	1242.372614	-183.173272	104.690365	1260.834725	-284.027663	193.882100	1072.642546	-85.633314	180.759816	1125.790064	-462.838455	235.125973	959.677810	-68.327275	264.282983	882.568761	-75.236704	290.291134	796.943776	-82.971801	316.019347	900.041781	-89.974004	298.068863	679.782157	-106.422688	248.589106	575.598989	-71.427002	227.887716	493.566349	-74.497422	198.516097	409.804676	-82.683132	275.519217	480.087010	-109.458268	153.525066	302.401785	-103.906298	190.225282	297.345744	-177.627755	112.081044	311.762547	-156.030525	294.686720	110.494330	-141.682763	198.682688	160.609096	-72.478447	272.929222	1047.535815	-481.571461	359.440254	1027.822722	-491.506141	374.067806	1078.577930	-476.773260	439.630392	996.736928	-485.150854	528.867384	920.828397	-476.159915	438.315702	860.209601	-491.800432	382.620555	793.492600	-477.693873	327.534836	731.847802	-456.345871	429.053332	761.743686	-453.571319	244.365911	631.620835	-428.601982	276.839654	629.775731	-348.621784	185.344858	625.715408	-382.039323	406.046228	458.008922	-382.284151	307.544334	496.231914	-451.161890	-229.573913	890.818740	-254.628942	-22.710141	80.838085	-456.300357	-22.691135	80.359979	-56.022350	
501	2.5050	653.054703	1366.588350	-131.837073	643.588588	1341.977683	-465.250470	611.288734	1445.409012	-291.001906	611.740314	1280.334232	-291.936136	634.002670	1088.571790	-28.000425	741.379906	852.338919	-83.726873	576.462388	1067.979778	-569.982083	720.154199	880.045597	-463.348344	86.734992	1216.755484	-232.011733	226.811130	1249.362689	-428.503324	268.545828	1193.244591	-109.180291	233.658636	1189.693599	-407.498087	283.535996	1145.483349	-141.029267	125.959537	1244.095811	-182.038131	104.657165	1263.021312	-283.030921	194.158027	1073.995953	-84.705257	179.371704	1128.330655	-461.511705	237.587284	960.745412	-68.482200	267.806373	884.073321	-75.854212	294.987024	798.909898	-84.520769	319.168346	902.373131	-90.628751	302.107476	682.059878	-106.992741	250.448474	578.911817	-72.053042	227.971835	497.346605	-75.029207	196.848154	414.206205	-83.028041	275.498802	482.717724	-109.638378	149.599462	307.555497	-103.322909	196.684695	305.978080	-174.929215	108.395881	317.887711	-156.752825	284.806848	111.100401	-141.524150	190.453634	164.248058	-72.483155	271.391795	1048.911244	-479.470590	357.737524	1028.760533	-488.858983	372.658592	1079.517247	-474.896176	437.953135	997.433051	-482.585006	529.493009	922.103478	-471.641498	439.467707	859.249117	-488.878243	384.966752	791.283735	-475.783783	330.564058	728.606530	-455.324071	431.791364	760.385495	-451.391893	248.271887	626.310053	-428.156724	280.604879	624.957545	-348.457699	188.931317	618.011388	-382.043543	415.326494	458.395498	-382.619451	315.416519	492.993999	-451.222235	-229.543120	890.906874	-254.483083	-22.711646	80.895622	-456.267450	-22.661362	80.398798	-55.974759	
502	2.5100	653.453743	1365.161441	-132.170211	643.168812	1342.267428	-465.509571	611.767729	1444.757231	-291.209938	611.673482	1279.607714	-292.845403	633.495755	1087.408468	-27.022210	741.115272	852.039147	-83.323662	573.697495	1068.013464	-570.109505	719.699253	881.298036	-463.589754	86.729566	1218.837615	-231.036604	226.940684	1251.388910	-427.376145	268.463851	1194.766042	-108.257121	233.195739	1190.434106	-406.669990	283.631389	1146.529074	-140.082646	126.043442	1245.799545	-181.022858	104.726468	1265.054043	-282.153352	194.333887	1075.230634	-83.721436	178.042116	1130.875163	-460.145767	240.164349	961.787195	-68.713407	271.649362	885.651160	-76.677250	300.269682	800.957474	-86.332793	322.616061	904.769046	-91.221123	306.916395	684.510546	-107.736934	253.053994	582.354674	-72.809750	228.734774	501.337275	-75.786799	195.650588	418.970959	-83.613698	275.945157	485.528648	-110.186293	145.422271	312.991906	-103.236529	192.203368	309.905417	-175.475064	104.274135	324.071338	-156.590720	275.036730	112.461906	-141.516100	182.394028	168.512278	-72.649907	269.898087	1049.871862	-477.358590	356.082529	1029.237925	-486.373587	371.266656	1080.065579	-472.739116	436.101802	997.389252	-480.050080	529.041965	921.770285	-467.960637	440.390878	857.236151	-485.555336	386.857525	788.116438	-473.746465	333.425969	724.536356	-453.964153	434.096659	757.764843	-449.130904	251.640222	620.157769	-427.731664	283.648487	619.513534	-347.859139	192.222770	609.413023	-382.053757	424.217410	458.388724	-382.812951	322.944183	489.142750	-451.446616	-229.527870	890.958177	-254.416103	-22.717778	80.926176	-456.244559	-22.661218	80.424956	-55.936169	
503	2.5150	653.657098	1364.076372	-132.486075	642.560699	1342.526717	-465.749531	612.101543	1444.091462	-291.450904	611.422886	1278.899693	-293.722669	632.423331	1086.274683	-25.993633	741.205445	852.144211	-82.083681	571.455834	1068.314614	-570.337753	719.163906	882.413839	-463.759177	86.802050	1220.825811	-230.106203	227.063351	1253.362015	-426.136360	268.355438	1196.164338	-107.421296	232.842743	1190.931886	-405.898103	283.261295	1147.489627	-139.322877	126.134580	1247.383058	-180.069049	104.990087	1266.967266	-281.377564	194.445650	1076.457481	-82.803329	176.704540	1133.213572	-458.530554	243.012167	962.781171	-68.705096	275.822776	887.149615	-77.555069	305.966361	803.017386	-88.074361	326.270914	907.268773	-91.757204	312.430089	686.874455	-108.769681	256.272417	585.858395	-73.673141	229.936755	505.421795	-76.594167	194.799198	423.951569	-84.392305	276.535528	488.553546	-111.262503	141.137917	318.847277	-103.316510	188.083039	314.585402	-176.155017	99.863502	330.460324	-156.802395	265.447804	114.648097	-141.502266	174.417884	173.277545	-72.948915	268.315642	1050.352551	-475.342797	354.424351	1029.091976	-483.931547	369.897666	1079.801858	-470.256277	434.089141	996.558745	-477.562394	528.275816	920.068705	-464.461538	440.868231	854.087026	-482.129778	388.329710	783.938778	-471.606210	335.836634	719.481245	-452.256505	435.897227	754.168349	-446.915630	254.936181	612.471032	-426.833603	286.357413	613.201086	-347.161927	195.327669	599.900273	-382.103863	432.664964	457.758082	-383.167982	330.301376	484.594686	-451.846407	-229.515830	890.972287	-254.376870	-22.722263	80.937336	-456.231286	-22.635235	80.416696	-55.943877	
504	2.5200	653.608104	1362.277201	-134.489163	641.822647	1342.644483	-466.019403	612.250815	1443.411318	-291.726879	611.055529	1277.959106	-294.678295	631.219905	1085.283927	-25.083173	740.943246	851.757224	-81.927577	569.757861	1068.689495	-570.553268	718.449643	883.379043	-464.032636	87.013907	1222.702456	-229.122694	227.325494	1255.116130	-425.048369	268.208578	1197.281185	-106.695125	232.595059	1191.193743	-405.185593	282.528681	1148.168722	-138.648334	126.157494	1249.001969	-179.217062	105.281181	1268.683866	-280.649101	194.507964	1077.478440	-81.804381	175.583811	1135.364033	-457.025457	245.976931	963.636394	-68.876656	280.150190	888.708854	-78.459051	311.835689	805.218524	-89.588457	330.537429	910.004200	-91.831908	318.526656	689.300526	-109.989840	259.893277	589.339358	-74.637210	231.404288	509.562345	-77.620644	194.047283	429.071195	-85.252646	277.240452	491.622914	-112.680780	136.695110	325.133215	-103.704831	183.129623	318.694166	-177.364123	95.174280	337.137143	-157.468792	256.074115	117.671367	-141.429271	166.513054	178.587444	-73.281288	266.651087	1050.279702	-473.359797	352.564581	1028.210425	-481.477511	368.398928	1078.915945	-467.938452	431.919920	994.882571	-475.127962	527.388593	917.119057	-460.983802	440.948677	849.869795	-478.792098	389.418802	778.825706	-469.502699	338.176897	713.327971	-450.411067	437.197688	749.426185	-444.666423	258.311139	604.810114	-426.614463	288.895879	605.965067	-346.463303	198.318307	589.737034	-382.151559	440.698956	456.457460	-383.554393	337.361095	479.287183	-452.310490	-229.536532	890.962025	-254.453921	-22.727489	80.913226	-456.236157	-22.662384	80.433349	-55.963918	
505	2.5250	653.541735	1361.626996	-134.774522	641.018174	1342.627286	-466.233585	612.217215	1442.728264	-292.026135	610.646747	1277.279250	-295.406701	629.932831	1084.401117	-24.435511	740.642764	851.478831	-81.789098	568.321657	1069.211437	-570.759466	717.760146	884.410509	-464.511634	87.542547	1223.944914	-227.825312	227.711798	1256.664683	-423.947268	268.051393	1198.255656	-105.897172	232.448104	1191.226728	-404.535539	282.197432	1148.856325	-137.863337	126.294741	1250.489685	-178.425432	105.750112	1270.168368	-280.026614	194.532246	1078.492558	-80.767951	174.652663	1137.021135	-455.515107	248.909733	964.344035	-69.016366	284.470848	890.269099	-79.499503	317.836022	807.552805	-90.890354	334.073907	912.350510	-92.651021	324.880097	691.681302	-111.388460	263.705205	592.866096	-75.645787	232.988094	513.952081	-78.611137	193.321050	434.534924	-86.244336	277.770442	495.010092	-114.597397	132.057666	331.816080	-104.215388	177.952715	323.773831	-178.422507	90.425246	344.208992	-158.108691	246.924796	121.465192	-141.307667	158.771807	184.507095	-73.683892	264.872285	1049.430472	-471.352876	350.519777	1026.413810	-479.089465	366.906918	1077.090348	-465.885809	429.600980	992.281269	-472.733595	526.334559	913.021727	-457.567021	440.585426	844.598255	-475.630821	390.114466	772.701722	-467.416902	339.626673	706.350840	-449.016839	438.218137	743.699895	-442.626173	261.157384	595.948539	-425.980161	291.449542	597.842441	-345.784912	201.360263	578.812489	-382.232434	448.151966	454.415116	-383.873407	344.098409	473.235795	-452.897217	-229.541547	890.935305	-254.649288	-22.732963	80.849248	-456.259718	-22.673421	80.413332	-55.976345	
